<svg
  xmlns="http://www.w3.org/2000/svg"
  xmlns:xlink="http://www.w3.org/1999/xlink"
  viewBox="0 0 1200 800"
>
  <title>Backend</title>
  <style>
    :root { color: black; background-color: currentcolor; max-width: 100% }
    body { margin: 0 }
    path { fill: none; stroke: #FE2F47; stroke-width: 5px; stroke-linecap: round; stroke-opacity: 0.05 }
    path:nth-child(odd) { stroke-opacity: 0.075 }
  </style>
  <rect width="100%" height="100%" fill="currentcolor"/>
  <defs>
  <path id="t1" d="M7.76,10.89c-1.5,2.18-2.77,4.5-4.27,6.68-1.12,1.63-2.22,4-.86,5.41a4.34,4.34,0,0,0,2.25,1,130.06,130.06,0,0,0,24.85,3.36,2.65,2.65,0,0,0,2-.45,2.5,2.5,0,0,0,.51-2c-.43-7.43-5.32-13.76-10-19.55C21.15,4,20,2.67,18.4,2.18a5.71,5.71,0,0,0-5,1.19,16.87,16.87,0,0,0-3.43,4c-1.43,2.11-.79,1.36-2.23,3.47">
    <animate
      attributeName="opacity"
      repeatCount="indefinite"
      dur="20s"
      values="1;1;1;0;0;0;0;0;1"
    />
    <animateTransform
      attributeName="transform"
      type="rotate"
      repeatCount="indefinite"
      dur="80s"
      from="360 150 150"
      to="0 150 150"
    />
  </path>
  <path id="c1" d="M12.36,11.18a1.16,1.16,0,0,0-1.63-.11,3,3,0,0,0-.87,1.58c-.61,2.11-.78,4.58.55,6.32,1.71,2.23,5.36,2.21,7.57.46s3.15-4.69,3.26-7.5a13.18,13.18,0,0,0-1.89-7.67A9.12,9.12,0,0,0,12.85,0,9.93,9.93,0,0,0,4.51,3.82,20.08,20.08,0,0,0,.67,12.45c-.86,3.8-1.14,8,.63,11.44,2.31,4.55,7.64,6.85,12.72,7.3a13.12,13.12,0,0,0,7.81-1.32,15.12,15.12,0,0,0,5-5.68c2.11-3.59,3.87-7.56,3.88-11.73S28.64,3.9,24.84,2.21">
    <animate
      attributeName="opacity"
      repeatCount="indefinite"
      dur="20s"
      values="0;1;1;1;0;0;0;0;0"
    />
    <animateTransform
      attributeName="transform"
      type="rotate"
      repeatCount="indefinite"
      dur="80s"
      from="360 150 150"
      to="0 150 150"
    />
  </path>
  <path id="l1" d="M2.07,10.63a6,6,0,0,0,2.89,6A6,6,0,0,0,11.59,16c3.64-3.14,2.84-10.08,7.21-12.06,2.83-1.29,6.15.49,8.31,2.72s3.86,5,6.55,6.59a9.31,9.31,0,0,0,10.47-1A9.31,9.31,0,0,0,46.62,2">
    <animate
      attributeName="opacity"
      repeatCount="indefinite"
      dur="20s"
      values="0;0;1;1;1;0;0;0;0"
    />
    <animateTransform
      attributeName="transform"
      type="rotate"
      repeatCount="indefinite"
      dur="80s"
      from="360 150 150"
      to="0 150 150"
    />
  </path>
  <path id="t2" d="M23.42,19c-1.93-6-2.36-7.18-4.09-13.2-.54-1.88-1.82-4.21-3.71-3.74a3.78,3.78,0,0,0-1.45.88,120.75,120.75,0,0,0-9.68,9.15c-1.38,1.45-2.82,3.27-2.41,5.23a6.22,6.22,0,0,0,2.63,3.34,73,73,0,0,0,15.38,9.16c2,.87,4.64,1.5,6-.18s.26-4-1-5.75S24.06,21,23.42,19Z">
    <animate
      attributeName="opacity"
      repeatCount="indefinite"
      dur="20s"
      values="0;0;0;1;1;1;0;0;0"
    />
    <animateTransform
      attributeName="transform"
      type="rotate"
      repeatCount="indefinite"
      dur="80s"
      from="360 150 150"
      to="0 150 150"
    />
  </path>
  <path id="c2" d="M13.44,10.08a2.92,2.92,0,0,0-4.15-.66C7.93,10.56,8,12.75,8.79,14.32a6.86,6.86,0,0,0,8.38,3,7.23,7.23,0,0,0,4.17-8A11.85,11.85,0,0,0,18.15,4,11.42,11.42,0,0,0,12.33.14a9.79,9.79,0,0,0-7.4,2C1.72,4.41-.71,8.37.19,12.21a13.84,13.84,0,0,0,1.85,4,30.12,30.12,0,0,0,5,6.55A11.53,11.53,0,0,0,14.33,26,12.35,12.35,0,0,0,22,23.15c4.33-3.33,7.31-9,5.86-14.3">
    <animate
      attributeName="opacity"
      repeatCount="indefinite"
      dur="20s"
      values="0;0;0;0;1;1;1;0;0"
    />
    <animateTransform
      attributeName="transform"
      type="rotate"
      repeatCount="indefinite"
      dur="80s"
      from="360 150 150"
      to="0 150 150"
    />
  </path>
  <path id="l2" d="M85.7,8.9c.33-3.32-2.7-6.31-6-6.81s-6.62,1-9.21,3.12S65.89,10,63.64,12.49a9.41,9.41,0,0,1-4.58,3.19c-3.47.78-6.65-2.08-8.76-4.94s-4.2-6.21-7.64-7.11c-3.79-1-7.67,1.51-10.15,4.54s-4.16,6.7-6.93,9.47S18.31,22.12,15,20.06a12.07,12.07,0,0,1-3.69-4.46L7.93,9.85A7.14,7.14,0,0,0,5.39,6.91C4.22,6.3,2.5,6.56,2,7.78">
    <animate
      attributeName="opacity"
      repeatCount="indefinite"
      dur="20s"
      values="0;0;0;0;0;1;1;1;0"
    />
    <animateTransform
      attributeName="transform"
      type="rotate"
      repeatCount="indefinite"
      dur="80s"
      from="360 150 150"
      to="0 150 150"
    />
  </path>
  <path id="t3" d="M16.58,2.36A68.52,68.52,0,0,0,5.33,2.14,4.14,4.14,0,0,0,2.7,3C1.38,4.23,2.18,6.42,3,8l8.1,14.87c.65,1.2,1.43,2.5,2.75,2.87a4.89,4.89,0,0,0,3.37-.69A42.36,42.36,0,0,0,32.45,12.46a8.56,8.56,0,0,0,1.79-3.54,3.37,3.37,0,0,0-1.38-3.5A5,5,0,0,0,31,4.92C25.13,4.1,22.51,2.9,16.58,2.36Z">
    <animate
      attributeName="opacity"
      repeatCount="indefinite"
      dur="20s"
      values="1;0;0;0;0;0;1;1;1"
    />
    <animateTransform
      attributeName="transform"
      type="rotate"
      repeatCount="indefinite"
      dur="80s"
      from="360 150 150"
      to="0 150 150"
    />
  </path>
  <path id="c3" d="M16.66,19.31c0-2.1-2.84-3.38-4.68-2.35s-2.46,3.52-1.85,5.54c1.12,3.7,5.8,5.64,9.41,4.27s5.81-5.44,5.52-9.3a12.82,12.82,0,0,0-6-9.46A12.7,12.7,0,0,0,8,6.38,12.65,12.65,0,0,0,.54,15.12a20.73,20.73,0,0,0,.75,11.75,17.2,17.2,0,0,0,2.43,4.92c3.94,5.26,11.55,6.36,18,5a17.51,17.51,0,0,0,7.55-3.24,15.27,15.27,0,0,0,4.9-8.16A20.76,20.76,0,0,0,18.61,0">
    <animate
      attributeName="opacity"
      repeatCount="indefinite"
      dur="20s"
      values="1;0;0;0;0;0;0;1;1"
    />
    <animateTransform
      attributeName="transform"
      type="rotate"
      repeatCount="indefinite"
      dur="80s"
      from="360 150 150"
      to="0 150 150"
    />
  </path>
  <path id="l3" d="M2,19.86c2.37-3.51,2.92-9.08,7-10,2.51-.58,5,1.1,6.65,3.1s2.78,4.4,4.69,6.14a10.34,10.34,0,0,0,13.12.34c3.4-2.8,4.55-7.42,6.65-11.29S46.72.68,50.74,2.48c5.2,2.33,4.63,11.25,9.95,13.29a8.22,8.22,0,0,0,6.09-.56,18.15,18.15,0,0,0,9.57-9.86">
    <animate
      attributeName="opacity"
      repeatCount="indefinite"
      dur="20s"
      values="1;1;0;0;0;0;0;0;1"
    />
    <animateTransform
      attributeName="transform"
      type="rotate"
      repeatCount="indefinite"
      dur="80s"
      from="360 150 150"
      to="0 150 150"
    />
  </path>
  </defs>
  <use
    xlink:href="#t1"
    transform="translate(417.85 158.91) rotate(166.6) scale(1.05)"
  />
  <use
    xlink:href="#t1"
    transform="translate(0.38 439.03) rotate(131.04) scale(1.11)"
  />
  <use
    xlink:href="#t1"
    transform="translate(243.46 711.08) rotate(129.56) scale(0.98)"
  />
  <use
    xlink:href="#t1"
    transform="translate(692.98 108.37) rotate(280.11) scale(1.04)"
  />
  <use
    xlink:href="#t1"
    transform="translate(279.86 650.75) rotate(45.12) scale(0.92)"
  />
  <use
    xlink:href="#t1"
    transform="translate(562.22 467.06) rotate(9.05) scale(1.03)"
  />
  <use
    xlink:href="#t1"
    transform="translate(904.37 416.17) rotate(75.78) scale(1.16)"
  />
  <use
    xlink:href="#t1"
    transform="translate(1094.59 602) rotate(153.02) scale(1.18)"
  />
  <use
    xlink:href="#t1"
    transform="translate(235.85 106.64) rotate(125.86) scale(0.82)"
  />
  <use
    xlink:href="#t1"
    transform="translate(887.18 319.43) rotate(39.67) scale(1.14)"
  />
  <use
    xlink:href="#t1"
    transform="translate(708.49 281.46) rotate(18.84) scale(0.84)"
  />
  <use
    xlink:href="#t1"
    transform="translate(376.51 690.13) rotate(99.76) scale(1.09)"
  />
  <use
    xlink:href="#t1"
    transform="translate(4.09 544.66) rotate(104.86) scale(1.17)"
  />
  <use
    xlink:href="#t1"
    transform="translate(322.2 248.69) rotate(131.48) scale(1.06)"
  />
  <use
    xlink:href="#t1"
    transform="translate(205.82 103.84) rotate(10.42) scale(0.83)"
  />
  <use
    xlink:href="#t1"
    transform="translate(58.09 532.47) rotate(315.64) scale(1.07)"
  />
  <use
    xlink:href="#t1"
    transform="translate(746.01 102.32) rotate(113.62) scale(0.96)"
  />
  <use
    xlink:href="#t1"
    transform="translate(812.58 474.55) rotate(253.89) scale(0.94)"
  />
  <use
    xlink:href="#t1"
    transform="translate(875.75 523.17) rotate(126.21) scale(0.87)"
  />
  <use
    xlink:href="#t1"
    transform="translate(822.82 249.43) rotate(14.52) scale(0.88)"
  />
  <use
    xlink:href="#c1"
    transform="translate(1191.1 589.93) rotate(171.31) scale(0.97)"
  />
  <use
    xlink:href="#c1"
    transform="translate(286.49 434.15) rotate(184.1) scale(1.11)"
  />
  <use
    xlink:href="#c1"
    transform="translate(805.18 536.23) rotate(290.8) scale(1.16)"
  />
  <use
    xlink:href="#c1"
    transform="translate(43.28 472.53) rotate(36.09) scale(0.95)"
  />
  <use
    xlink:href="#c1"
    transform="translate(159.71 471.07) rotate(171.32) scale(0.96)"
  />
  <use
    xlink:href="#c1"
    transform="translate(24.09 511.38) rotate(197.93) scale(0.95)"
  />
  <use
    xlink:href="#c1"
    transform="translate(66.9 635.25) rotate(150.69) scale(0.82)"
  />
  <use
    xlink:href="#c1"
    transform="translate(738.6 26.34) rotate(45.41) scale(0.88)"
  />
  <use
    xlink:href="#c1"
    transform="translate(629.6 541.18) rotate(171.55) scale(1.17)"
  />
  <use
    xlink:href="#c1"
    transform="translate(1081.37 781.51) rotate(96.01) scale(0.86)"
  />
  <use
    xlink:href="#c1"
    transform="translate(910.88 419.93) rotate(76.46) scale(1.09)"
  />
  <use
    xlink:href="#c1"
    transform="translate(352.7 124.53) rotate(124.56) scale(1.1)"
  />
  <use
    xlink:href="#c1"
    transform="translate(309.96 696.74) rotate(297.6) scale(0.93)"
  />
  <use
    xlink:href="#c1"
    transform="translate(682.76 213.36) rotate(66.32) scale(1)"
  />
  <use
    xlink:href="#c1"
    transform="translate(819.82 374.18) rotate(102.49) scale(1.18)"
  />
  <use
    xlink:href="#c1"
    transform="translate(17.48 176.14) rotate(287.42) scale(1.17)"
  />
  <use
    xlink:href="#c1"
    transform="translate(212.9 230.15) rotate(267.43) scale(1.05)"
  />
  <use
    xlink:href="#c1"
    transform="translate(254.94 478.3) rotate(174.22) scale(0.86)"
  />
  <use
    xlink:href="#c1"
    transform="translate(482.11 478.29) rotate(55.56) scale(1.16)"
  />
  <use
    xlink:href="#c1"
    transform="translate(656.02 263.84) rotate(311.3) scale(1.04)"
  />
  <use
    xlink:href="#l1"
    transform="translate(593.95 502.62) rotate(236.96) scale(1.18)"
  />
  <use
    xlink:href="#l1"
    transform="translate(893.2 631.2) rotate(219.28) scale(1.14)"
  />
  <use
    xlink:href="#l1"
    transform="translate(702.09 170.47) rotate(73.31) scale(0.92)"
  />
  <use
    xlink:href="#l1"
    transform="translate(1117.52 187.1) rotate(326.86) scale(1.07)"
  />
  <use
    xlink:href="#l1"
    transform="translate(474.66 772.49) rotate(128.37) scale(1.19)"
  />
  <use
    xlink:href="#l1"
    transform="translate(897.41 325.71) rotate(321.01) scale(0.95)"
  />
  <use
    xlink:href="#l1"
    transform="translate(795.11 328.94) rotate(139.56) scale(1.12)"
  />
  <use
    xlink:href="#l1"
    transform="translate(529.74 220.94) rotate(300.1) scale(1.06)"
  />
  <use
    xlink:href="#l1"
    transform="translate(22.07 700.72) rotate(153.83) scale(0.86)"
  />
  <use
    xlink:href="#l1"
    transform="translate(1100.34 346.96) rotate(14.86) scale(0.87)"
  />
  <use
    xlink:href="#l1"
    transform="translate(817.03 703.9) rotate(135.19) scale(0.9)"
  />
  <use
    xlink:href="#l1"
    transform="translate(698.18 416.19) rotate(292.98) scale(1.06)"
  />
  <use
    xlink:href="#l1"
    transform="translate(131.11 775.89) rotate(195.16) scale(0.82)"
  />
  <use
    xlink:href="#l1"
    transform="translate(578.19 569.51) rotate(232.34) scale(0.9)"
  />
  <use
    xlink:href="#l1"
    transform="translate(624.4 168.35) rotate(313.68) scale(1.15)"
  />
  <use
    xlink:href="#l1"
    transform="translate(408.69 70.18) rotate(358.83) scale(0.91)"
  />
  <use
    xlink:href="#l1"
    transform="translate(592.84 131.89) rotate(265.18) scale(0.98)"
  />
  <use
    xlink:href="#l1"
    transform="translate(243.92 145.75) rotate(122.15) scale(1.03)"
  />
  <use
    xlink:href="#l1"
    transform="translate(703.58 774.74) rotate(124.34) scale(1.1)"
  />
  <use
    xlink:href="#l1"
    transform="translate(892.7 484.14) rotate(355.42) scale(1.1)"
  />
  <use
    xlink:href="#t2"
    transform="translate(481.58 270.36) rotate(35.97) scale(1.09)"
  />
  <use
    xlink:href="#t2"
    transform="translate(1081.68 91.79) rotate(244.33) scale(0.99)"
  />
  <use
    xlink:href="#t2"
    transform="translate(638.78 160.15) rotate(319.24) scale(1.02)"
  />
  <use
    xlink:href="#t2"
    transform="translate(846.51 737.05) rotate(253.73) scale(1.15)"
  />
  <use
    xlink:href="#t2"
    transform="translate(640.42 589.33) rotate(116.48) scale(1.11)"
  />
  <use
    xlink:href="#t2"
    transform="translate(885.29 394.75) rotate(196.19) scale(1.01)"
  />
  <use
    xlink:href="#t2"
    transform="translate(501.51 606.56) rotate(27.41) scale(1.14)"
  />
  <use
    xlink:href="#t2"
    transform="translate(636.6 666.3) rotate(0.52) scale(1.18)"
  />
  <use
    xlink:href="#t2"
    transform="translate(1183.42 240.94) rotate(216.36) scale(0.88)"
  />
  <use
    xlink:href="#t2"
    transform="translate(1064.83 652.31) rotate(175.16) scale(0.9)"
  />
  <use
    xlink:href="#t2"
    transform="translate(662.66 168.51) rotate(318.27) scale(1.17)"
  />
  <use
    xlink:href="#t2"
    transform="translate(673.37 254) rotate(130.85) scale(0.89)"
  />
  <use
    xlink:href="#t2"
    transform="translate(963.95 358.39) rotate(17) scale(1.03)"
  />
  <use
    xlink:href="#t2"
    transform="translate(1131.28 702.17) rotate(331.02) scale(1.03)"
  />
  <use
    xlink:href="#t2"
    transform="translate(668.73 143.91) rotate(66.29) scale(0.98)"
  />
  <use
    xlink:href="#t2"
    transform="translate(674.33 425.25) rotate(78.57) scale(0.83)"
  />
  <use
    xlink:href="#t2"
    transform="translate(703.07 254.89) rotate(123.24) scale(0.9)"
  />
  <use
    xlink:href="#t2"
    transform="translate(699.37 566.97) rotate(239.89) scale(1.18)"
  />
  <use
    xlink:href="#t2"
    transform="translate(663.25 718.8) rotate(283.33) scale(1.08)"
  />
  <use
    xlink:href="#t2"
    transform="translate(130.98 128.1) rotate(1.3) scale(1.04)"
  />
  <use
    xlink:href="#c2"
    transform="translate(520.6 431.87) rotate(200.58) scale(1.01)"
  />
  <use
    xlink:href="#c2"
    transform="translate(358 43.67) rotate(28.14) scale(0.96)"
  />
  <use
    xlink:href="#c2"
    transform="translate(1006.59 304.73) rotate(70.18) scale(1.01)"
  />
  <use
    xlink:href="#c2"
    transform="translate(1182.53 520.21) rotate(190.09) scale(1)"
  />
  <use
    xlink:href="#c2"
    transform="translate(674.93 29.48) rotate(5.58) scale(1.04)"
  />
  <use
    xlink:href="#c2"
    transform="translate(960.69 536.85) rotate(71.07) scale(0.89)"
  />
  <use
    xlink:href="#c2"
    transform="translate(645.86 640.06) rotate(0.06) scale(0.8)"
  />
  <use
    xlink:href="#c2"
    transform="translate(143.95 204.9) rotate(225.64) scale(1.09)"
  />
  <use
    xlink:href="#c2"
    transform="translate(607.74 237.23) rotate(345.68) scale(0.8)"
  />
  <use
    xlink:href="#c2"
    transform="translate(617.08 151.88) rotate(241.48) scale(1.02)"
  />
  <use
    xlink:href="#c2"
    transform="translate(1070.19 152.76) rotate(253.43) scale(1.06)"
  />
  <use
    xlink:href="#c2"
    transform="translate(825.82 298.78) rotate(196.78) scale(1.14)"
  />
  <use
    xlink:href="#c2"
    transform="translate(737.22 751.71) rotate(250.1) scale(0.97)"
  />
  <use
    xlink:href="#c2"
    transform="translate(366.41 92.39) rotate(224.27) scale(1.05)"
  />
  <use
    xlink:href="#c2"
    transform="translate(1156.5 121.58) rotate(55.87) scale(1)"
  />
  <use
    xlink:href="#c2"
    transform="translate(1115.95 285.93) rotate(278.35) scale(0.93)"
  />
  <use
    xlink:href="#c2"
    transform="translate(426.41 129.78) rotate(170.08) scale(0.93)"
  />
  <use
    xlink:href="#c2"
    transform="translate(677.06 78.17) rotate(287.03) scale(0.98)"
  />
  <use
    xlink:href="#c2"
    transform="translate(783.23 569.92) rotate(177.04) scale(0.96)"
  />
  <use
    xlink:href="#c2"
    transform="translate(680.51 526.66) rotate(305.79) scale(1.11)"
  />
  <use
    xlink:href="#l2"
    transform="translate(79.35 595.22) rotate(133.93) scale(0.86)"
  />
  <use
    xlink:href="#l2"
    transform="translate(98.01 563.63) rotate(31.61) scale(1.12)"
  />
  <use
    xlink:href="#l2"
    transform="translate(900.74 172.88) rotate(180.15) scale(1.05)"
  />
  <use
    xlink:href="#l2"
    transform="translate(635.3 629.88) rotate(46.44) scale(0.97)"
  />
  <use
    xlink:href="#l2"
    transform="translate(203.74 283.64) rotate(195.38) scale(0.91)"
  />
  <use
    xlink:href="#l2"
    transform="translate(729.33 19.42) rotate(73.41) scale(1.15)"
  />
  <use
    xlink:href="#l2"
    transform="translate(1107.77 736.7) rotate(342.9) scale(0.8)"
  />
  <use
    xlink:href="#l2"
    transform="translate(433.79 25.35) rotate(183.09) scale(0.87)"
  />
  <use
    xlink:href="#l2"
    transform="translate(358.63 481.58) rotate(106.99) scale(0.91)"
  />
  <use
    xlink:href="#l2"
    transform="translate(302.98 299.63) rotate(290.46) scale(0.85)"
  />
  <use
    xlink:href="#l2"
    transform="translate(693.13 794.44) rotate(276.15) scale(1.05)"
  />
  <use
    xlink:href="#l2"
    transform="translate(523.03 407.41) rotate(299.59) scale(0.89)"
  />
  <use
    xlink:href="#l2"
    transform="translate(1118.92 605.41) rotate(328.21) scale(1.05)"
  />
  <use
    xlink:href="#l2"
    transform="translate(359.07 662.89) rotate(346.65) scale(0.9)"
  />
  <use
    xlink:href="#l2"
    transform="translate(973.66 201.2) rotate(239.61) scale(0.82)"
  />
  <use
    xlink:href="#l2"
    transform="translate(933.75 95.33) rotate(28.19) scale(0.8)"
  />
  <use
    xlink:href="#l2"
    transform="translate(867.73 590.75) rotate(184.87) scale(1.1)"
  />
  <use
    xlink:href="#l2"
    transform="translate(760.95 489.77) rotate(313.06) scale(1.05)"
  />
  <use
    xlink:href="#l2"
    transform="translate(845.92 525.81) rotate(156.79) scale(0.91)"
  />
  <use
    xlink:href="#l2"
    transform="translate(292.6 439.82) rotate(73.75) scale(1.08)"
  />
  <use
    xlink:href="#t3"
    transform="translate(824.07 684.12) rotate(237.15) scale(1.12)"
  />
  <use
    xlink:href="#t3"
    transform="translate(80.6 797.23) rotate(229.42) scale(0.97)"
  />
  <use
    xlink:href="#t3"
    transform="translate(1026.14 102.15) rotate(120.44) scale(0.88)"
  />
  <use
    xlink:href="#t3"
    transform="translate(977.53 150.51) rotate(114.88) scale(1.11)"
  />
  <use
    xlink:href="#t3"
    transform="translate(929.48 392.18) rotate(330.09) scale(0.86)"
  />
  <use
    xlink:href="#t3"
    transform="translate(677.01 716.34) rotate(271.62) scale(0.88)"
  />
  <use
    xlink:href="#t3"
    transform="translate(670.72 335.56) rotate(76.14) scale(1.06)"
  />
  <use
    xlink:href="#t3"
    transform="translate(727.88 614.57) rotate(273.91) scale(1.02)"
  />
  <use
    xlink:href="#t3"
    transform="translate(697.75 228.14) rotate(250.56) scale(1.05)"
  />
  <use
    xlink:href="#t3"
    transform="translate(554.51 411.88) rotate(186.67) scale(1.03)"
  />
  <use
    xlink:href="#t3"
    transform="translate(1040.54 581.32) rotate(56.28) scale(0.98)"
  />
  <use
    xlink:href="#t3"
    transform="translate(280.31 544.42) rotate(74.12) scale(1.06)"
  />
  <use
    xlink:href="#t3"
    transform="translate(576.94 576.44) rotate(111.87) scale(1.03)"
  />
  <use
    xlink:href="#t3"
    transform="translate(211.83 398.69) rotate(211.86) scale(1.03)"
  />
  <use
    xlink:href="#t3"
    transform="translate(1024.83 546.63) rotate(215.89) scale(1.18)"
  />
  <use
    xlink:href="#t3"
    transform="translate(733.52 6.81) rotate(101.41) scale(0.86)"
  />
  <use
    xlink:href="#t3"
    transform="translate(315.13 109.09) rotate(135.96) scale(1.07)"
  />
  <use
    xlink:href="#t3"
    transform="translate(510.37 11.58) rotate(24.57) scale(1.14)"
  />
  <use
    xlink:href="#t3"
    transform="translate(539.11 565.72) rotate(106.3) scale(0.92)"
  />
  <use
    xlink:href="#t3"
    transform="translate(200.11 163.05) rotate(346.72) scale(1.01)"
  />
  <use
    xlink:href="#c3"
    transform="translate(66.39 658.47) rotate(332.87) scale(1.05)"
  />
  <use
    xlink:href="#c3"
    transform="translate(698.8 21.28) rotate(236.66) scale(0.95)"
  />
  <use
    xlink:href="#c3"
    transform="translate(821.75 396.73) rotate(157.33) scale(0.9)"
  />
  <use
    xlink:href="#c3"
    transform="translate(247.91 69.17) rotate(324.53) scale(1.04)"
  />
  <use
    xlink:href="#c3"
    transform="translate(414.98 69.31) rotate(157.33) scale(0.99)"
  />
  <use
    xlink:href="#c3"
    transform="translate(573.65 418.59) rotate(15.86) scale(1.18)"
  />
  <use
    xlink:href="#c3"
    transform="translate(456.92 530.88) rotate(328.92) scale(1.09)"
  />
  <use
    xlink:href="#c3"
    transform="translate(845.98 703.04) rotate(301.15) scale(1.02)"
  />
  <use
    xlink:href="#c3"
    transform="translate(1115.11 286.97) rotate(213.52) scale(1.06)"
  />
  <use
    xlink:href="#c3"
    transform="translate(732.71 328.35) rotate(57.09) scale(0.88)"
  />
  <use
    xlink:href="#c3"
    transform="translate(661.14 621.34) rotate(198.18) scale(1.16)"
  />
  <use
    xlink:href="#c3"
    transform="translate(1037.47 689.57) rotate(59.47) scale(0.94)"
  />
  <use
    xlink:href="#c3"
    transform="translate(1015.23 491.96) rotate(204.87) scale(1.16)"
  />
  <use
    xlink:href="#c3"
    transform="translate(1162.64 507.94) rotate(249.64) scale(0.92)"
  />
  <use
    xlink:href="#c3"
    transform="translate(296.77 388.18) rotate(91.08) scale(0.89)"
  />
  <use
    xlink:href="#c3"
    transform="translate(939.47 439.87) rotate(244.43) scale(0.87)"
  />
  <use
    xlink:href="#c3"
    transform="translate(487.84 724.31) rotate(210.37) scale(1.13)"
  />
  <use
    xlink:href="#c3"
    transform="translate(474.59 207.33) rotate(141.76) scale(1.03)"
  />
  <use
    xlink:href="#c3"
    transform="translate(685.13 383.38) rotate(28.08) scale(0.91)"
  />
  <use
    xlink:href="#c3"
    transform="translate(559.68 300.45) rotate(306.47) scale(1.11)"
  />
  <use
    xlink:href="#l3"
    transform="translate(700.37 269.07) rotate(30.86) scale(1.14)"
  />
  <use
    xlink:href="#l3"
    transform="translate(1154.64 435.18) rotate(147.26) scale(1.09)"
  />
  <use
    xlink:href="#l3"
    transform="translate(622.86 595.28) rotate(236.71) scale(1.19)"
  />
  <use
    xlink:href="#l3"
    transform="translate(9.76 647.61) rotate(114.65) scale(0.89)"
  />
  <use
    xlink:href="#l3"
    transform="translate(900.99 516.99) rotate(38.93) scale(0.92)"
  />
  <use
    xlink:href="#l3"
    transform="translate(153.36 620) rotate(118.61) scale(1.09)"
  />
  <use
    xlink:href="#l3"
    transform="translate(763.89 264.06) rotate(173.46) scale(0.84)"
  />
  <use
    xlink:href="#l3"
    transform="translate(1144.34 285.52) rotate(172.54) scale(1)"
  />
  <use
    xlink:href="#l3"
    transform="translate(268.82 216.36) rotate(327.02) scale(0.8)"
  />
  <use
    xlink:href="#l3"
    transform="translate(346.43 526.1) rotate(319.17) scale(1)"
  />
  <use
    xlink:href="#l3"
    transform="translate(631.11 412.43) rotate(277.31) scale(1.07)"
  />
  <use
    xlink:href="#l3"
    transform="translate(1153.57 610.79) rotate(291.61) scale(0.99)"
  />
  <use
    xlink:href="#l3"
    transform="translate(1050.19 427.41) rotate(208.73) scale(0.93)"
  />
  <use
    xlink:href="#l3"
    transform="translate(770.13 158.76) rotate(232.5) scale(0.92)"
  />
  <use
    xlink:href="#l3"
    transform="translate(104.58 102.01) rotate(332.68) scale(1.16)"
  />
  <use
    xlink:href="#l3"
    transform="translate(832.63 114.44) rotate(309.61) scale(0.94)"
  />
  <use
    xlink:href="#l3"
    transform="translate(942.42 226.33) rotate(58.91) scale(0.92)"
  />
  <use
    xlink:href="#l3"
    transform="translate(457.83 302.36) rotate(106.05) scale(0.94)"
  />
  <use
    xlink:href="#l3"
    transform="translate(838.82 44.35) rotate(122.57) scale(0.93)"
  />
  <use
    xlink:href="#l3"
    transform="translate(269.32 439.98) rotate(11.46) scale(0.82)"
  />
  <text
    x="600"
    y="400"
    font-family="courier new, courier, monospace"
    font-weight="bold"
    font-size="80"
    fill="#FE2F47"
    text-anchor="middle"
    alignment-baseline="middle"
  >a1
  </text>
</svg>
